<svg width="239" height="243" viewBox="0 0 239 243" fill="none" xmlns="http://www.w3.org/2000/svg">
<path d="M180.954 134.019C181.074 134.499 181.914 135.109 183.234 135.799C186.064 137.269 189.564 138.569 192.664 139.739C205.144 144.759 218.834 149.109 229.404 157.809C243.064 168.699 236.684 186.809 229.464 199.669C224.984 207.549 219.034 213.959 213.644 220.739C208.684 226.729 201.414 230.709 194.474 234.189C183.044 240.529 170.564 238.629 160.574 230.589C154.954 226.089 150.334 219.369 146.444 213.419C142.204 207.299 138.804 199.249 135.974 191.739C134.814 188.949 132.324 181.979 130.684 182.359C129.054 182.559 128.734 192.789 128.314 198.079C127.724 205.979 126.524 213.689 125.354 221.469C124.354 227.329 123.724 234.359 120.134 238.439C110.494 248.359 95.5143 238.279 85.8243 233.059C79.4643 229.359 73.3444 225.559 67.2244 221.409C44.5844 205.929 23.5244 188.419 56.7844 169.189C58.3844 168.029 65.7844 164.129 64.4344 162.739C63.8044 162.279 62.7944 162.319 61.9744 162.279C59.4344 162.229 55.0344 163.089 51.5944 163.699C35.7044 166.679 17.4644 175.249 8.23437 156.089C3.26437 145.789 1.82437 133.749 0.354368 122.199C0.054368 119.729 -0.125632 117.059 0.104368 114.689C0.804368 103.609 13.0244 101.989 21.9744 102.539C31.9744 103.649 41.4544 104.739 51.5144 106.719C53.7344 107.249 72.4544 112.239 64.0944 106.799C55.9544 102.319 44.5443 99.2794 38.3143 91.6994C29.8843 81.7394 33.5744 67.2094 40.5044 57.4294C47.4144 46.7694 55.9144 37.4694 65.9044 29.9394C79.2244 19.0794 89.9743 36.3793 95.5743 47.0493C98.3843 52.4193 100.854 58.0194 103.254 63.6194C104.464 65.9494 107.474 75.3194 109.764 75.2194C110.104 74.9794 110.154 74.6894 110.254 74.2694C110.674 70.8794 109.754 66.8693 109.084 63.4093C105.684 43.4693 91.1144 8.83936 119.384 1.49936C128.144 -0.350641 138.124 -0.380634 147.104 0.819366C152.414 1.68937 157.314 3.45934 162.574 5.10934C166.464 6.35934 170.544 8.30937 173.274 11.3194C179.754 18.7194 174.424 32.8293 172.294 41.3593C168.964 52.4293 163.874 62.9493 159.594 73.5993C158.674 76.2993 153.684 87.4994 160.584 81.4394C169.904 73.1394 180.534 61.0693 190.294 54.5993C197.124 49.9493 204.274 45.4393 212.064 42.6093C243.414 32.3093 239.484 92.7294 237.284 110.809C236.454 117.379 234.074 123.389 227.904 126.929C220.904 131.019 215.134 132.629 206.184 132.629C200.684 132.649 194.844 132.629 189.354 132.639C187.294 132.639 185.444 132.699 184.044 132.829C181.884 133.029 180.824 133.419 180.944 134.019V134.059L180.954 134.019ZM133.424 88.2194C118.084 85.7194 104.664 87.5494 93.8143 99.6994C82.8643 112.629 80.8944 130.719 86.6644 146.419C89.2444 153.249 94.0044 164.099 103.034 161.139C124.274 151.919 142.234 135.479 163.584 126.069C165.954 124.989 169.024 123.319 169.834 121.099C170.984 117.589 167.894 114.199 165.874 111.539C161.734 106.209 155.844 100.519 149.734 96.4594C144.464 92.8194 139.534 89.3394 133.584 88.2494L133.414 88.2194H133.424Z" fill="#FAF4EA"/>
<path d="M133.594 88.2493C139.524 89.3293 144.494 92.8293 149.744 96.4593C155.854 100.519 161.734 106.199 165.884 111.539C167.914 114.199 170.984 117.599 169.844 121.099C169.024 123.319 165.954 124.979 163.594 126.069C142.244 135.479 124.284 151.919 103.044 161.139C93.9543 164.079 89.2944 153.249 86.6744 146.419C80.9044 130.719 82.8743 112.619 93.8243 99.6993C104.634 87.5593 118.124 85.7193 133.434 88.2193L133.604 88.2493H133.594Z" fill="#FFDA7D"/>
</svg>
