<svg width="356" height="287" viewBox="0 0 356 287" fill="none" xmlns="http://www.w3.org/2000/svg">
<path d="M68.0204 1.03777C85.6504 12.1378 91.5404 50.5778 92.8304 70.1578C93.1804 74.2678 93.3704 82.9878 99.5204 79.7578C101.96 78.5378 104.84 75.8278 107.52 73.5078C123.53 60.3978 146.81 49.6278 167.85 49.0678C185.95 48.7778 192.45 60.3278 176.02 71.5578C165.44 78.3478 149.07 85.1178 136.62 89.6478C133.34 91.2178 113.97 94.9078 123.12 99.1078C128.22 101.108 134.53 101.598 139.98 102.738C149.65 104.518 158.48 107.538 167.35 110.408C174.35 112.748 181.73 114.888 188.11 118.718C195.47 122.748 200.11 132.168 193.8 139.058C188.64 144.278 180.2 143.758 173.42 142.858C166.77 141.938 160.82 140.808 154.52 138.568C145.76 135.098 136.27 130.688 128.66 125.778C125.73 123.928 122.66 121.778 119.6 120.268C118.03 119.508 116.74 119.138 115.94 119.388C112.55 121.018 119.17 132.168 120.2 135.028C126.65 149.188 133.03 162.968 137.78 177.588C139.19 182.158 140.55 187.278 140 192.028C139.04 200.598 131.16 200.758 125.26 196.188C117.53 190.418 112.73 181.558 108.47 173.098C103.36 162.418 99.2704 151.558 96.1604 140.368C94.4404 134.818 91.0104 117.708 85.4304 131.288C82.7004 138.938 79.7303 146.888 76.2503 154.308C72.2803 163.428 69.8104 172.448 63.9004 180.918C60.9004 185.308 57.3104 190.168 52.3004 192.088C45.4204 194.778 38.6504 189.128 37.3304 182.428C33.7604 167.028 40.7304 151.138 46.6004 136.978C49.4504 130.178 54.9103 123.158 58.3203 116.958C62.6003 109.028 51.7204 111.338 47.1704 111.358C40.1104 111.838 32.8504 112.418 25.7104 111.998C17.1604 111.508 -7.56963 106.298 2.28037 93.8878C12.3304 84.7478 36.1604 83.3278 49.6704 83.4078C53.5704 83.4678 57.5204 83.7478 61.3904 84.0578C64.1204 84.1278 67.5804 84.5078 69.6104 82.7678C72.2504 79.5078 67.1603 73.1278 65.7503 69.6778C61.3403 60.6778 56.8404 51.5578 54.2904 42.1878C52.2404 31.6378 48.9904 15.7578 54.2204 6.07777C56.8104 1.03777 62.6703 -1.53223 67.8803 0.967766L68.0404 1.03777H68.0204Z" fill="#7BAAB5"/>
<path d="M231.83 170.368C231.89 169.618 231.71 169.098 231.45 168.378C230.29 165.548 228.691 162.968 227.121 159.848C225.071 155.808 222.991 151.468 221.091 147.288C215.591 135.618 212.841 124.968 211.721 112.348C211.281 106.888 211.431 100.878 213.401 95.8178C215.481 90.5978 220.7 86.6478 226.44 88.4178C231.53 90.0178 235.181 94.8978 237.791 99.3978C248.461 118.228 250.79 142.778 253.09 164.508C255.47 175.528 265.68 161.888 270.2 159.218C283.44 149.248 299.001 142.548 314.791 138.388C323.111 136.468 334.71 135.038 341.81 140.358C350.1 148.828 337.57 158.098 330.33 161.938C318.55 169.068 305.92 172.708 292.76 177.348C289.79 178.358 286.751 179.508 283.871 180.578C281.711 181.548 278.51 182.378 277.63 184.268C277.33 186.788 285.721 187.328 288.871 188.148C290.631 188.488 292.38 188.808 294.14 189.148C310.23 193.248 342.2 199.268 352.45 211.128C358.35 217.898 354.981 228.228 346.111 229.988C338.951 231.338 332.07 228.298 324.95 227.508C308.58 225.678 299.24 219.488 285.76 211.068C272.18 202.688 271.25 204.108 277.44 218.068C283.27 232.668 290.35 246.818 295.15 261.688C297.17 267.828 300.15 274.288 298.82 280.748C297.7 285.418 293.661 288.168 289.041 285.998C281.231 282.228 276.151 274.168 271.781 266.888C268.001 260.158 264.851 253.798 262.291 246.958C258.741 237.178 256.041 225.318 252.431 215.838C249.421 207.768 246.29 216.428 244.59 220.098C238.72 233.708 234.24 248.278 227.4 261.458C223.7 268.348 219.261 276.168 211.651 279.098C207.791 280.528 203.77 280.018 200.95 277.248C196.94 272.928 197.251 266.218 197.031 260.528C196.861 252.378 198.83 244.848 201.82 237.478C205.1 227.448 210.4 217.708 216.19 208.628C222.93 197.658 214.301 198.788 206.101 199.138C195.461 199.338 183.64 199.238 173.77 196.888C170.46 196.028 167.07 195.188 164.32 193.148C157.36 188.108 160.831 180.758 167.791 177.868C172.221 176.118 176.87 174.628 181.46 173.478C189.09 171.588 201.65 172.498 210.51 172.298C215.78 172.258 222.331 172.368 226.981 172.248C230.031 172.128 231.601 171.698 231.791 170.438V170.368H231.83Z" fill="#F9F3EA"/>
</svg>
