<svg width="326" height="269" viewBox="0 0 326 269" fill="none" xmlns="http://www.w3.org/2000/svg">
<path d="M111.222 114.671C120.602 117.621 117.102 142.771 116.072 150.581C112.122 177.021 99.3919 201.091 88.2719 225.181C87.5019 227.541 86.7019 229.701 88.6019 230.241C91.1619 230.481 94.1919 228.981 96.7719 228.321C99.8919 227.371 103.332 226.811 106.502 226.851C113.982 226.451 122.532 231.691 121.512 239.871C118.952 251.461 103.672 254.021 94.2419 258.041C84.7219 261.661 75.9119 267.761 65.6619 268.691C54.7619 269.611 45.4819 260.921 37.3119 254.511C28.3319 246.541 -1.40807 218.471 0.0519262 205.971C1.26193 198.701 8.95193 198.281 14.5919 201.111C19.6519 203.501 24.2419 206.011 29.3819 209.591C35.3319 213.781 40.8019 218.251 45.4819 223.141C46.9519 224.801 51.3719 229.411 52.1619 228.021C52.5519 227.581 52.5419 226.411 52.2219 224.711C51.5019 220.951 50.0019 217.091 48.8819 213.271C42.7019 191.021 35.4019 169.051 32.0919 145.831C31.4819 140.791 31.3119 135.351 32.3119 130.511C35.7219 115.391 51.0219 113.331 58.3719 127.071C61.4419 132.601 63.3819 138.811 65.3919 144.791C69.6119 157.381 70.8619 174.071 73.2519 187.521C74.3419 195.361 76.0119 184.911 76.6019 182.801C78.4919 174.341 79.7319 165.551 81.9619 157.131C85.5619 144.341 93.6619 111.091 111.072 114.631L111.212 114.681L111.222 114.671Z" fill="#97BCC4"/>
<path d="M150.372 9.47142C158.902 -12.8886 183.162 9.50145 187.662 23.7515C201.932 54.2915 202.762 89.9114 213.372 121.281C217.862 122.031 215.952 102.581 217.432 98.9914C219.502 87.1414 220.312 75.0414 223.342 63.4014C227.452 45.7614 231.442 26.8714 242.722 12.1814C250.942 -0.408555 269.222 2.82144 273.102 17.2414C275.522 24.9814 274.542 33.3014 274.642 41.3014C273.772 66.3514 266.722 90.5614 260.052 114.471C259.932 120.221 227.042 205.771 249.742 175.841C260.572 162.261 317.272 103.011 325.562 140.971C323.962 164.481 254.862 234.461 231.042 234.671C212.902 235.971 199.242 224.111 182.942 218.281C168.072 211.641 143.822 208.221 141.342 188.911C141.432 172.841 161.532 168.041 174.392 171.851C181.952 172.131 201.722 185.611 192.982 168.221C181.562 139.541 166.942 112.941 158.352 83.4014C153.972 59.1914 146.382 34.3314 150.312 9.66143L150.362 9.48143L150.372 9.47142Z" fill="#DFB2B2"/>
</svg>
