<svg width="322" height="215" viewBox="0 0 322 215" fill="none" xmlns="http://www.w3.org/2000/svg">
<path d="M106.944 64.5911C102.794 58.8911 95.664 50.0212 94.854 42.3512C92.134 28.2212 101.374 15.0212 113.384 8.32115C136.434 -4.21885 171.444 -3.83885 189.194 18.1412C193.784 24.0412 197.564 22.9112 203.094 18.1112C216.574 6.68115 234.744 -1.30885 252.574 0.641153C281.334 5.91115 299.764 23.4312 298.584 53.8812C298.444 68.5812 289.054 80.7811 277.374 88.5611C274.474 90.3611 267.934 92.7711 267.794 93.9611C268.024 96.5311 277.834 97.7712 280.704 99.2512C289.364 102.721 297.634 107.221 304.884 113.401C314.434 121.981 321.184 133.931 321.004 147.291C321.164 154.581 320.894 162.451 317.564 168.581C303.554 191.831 275.044 195.891 249.474 196.461C244.614 196.481 239.694 196.051 235.214 194.261C222.204 186.991 220.984 185.311 209.504 196.061C202.254 202.261 193.034 206.081 184.404 209.881C170.394 215.641 153.734 216.871 139.854 210.271C128.574 205.831 117.624 194.991 114.854 183.031C113.474 173.951 112.894 163.331 117.794 155.281C118.794 153.141 123.984 147.171 121.504 146.271C116.614 145.891 110.504 148.681 105.344 149.171C98.564 150.241 91.8841 151.161 85.1541 152.271C79.0341 153.181 71.6941 152.901 64.6541 153.021C56.5841 152.961 48.3941 153.261 40.7441 151.751C27.3441 149.011 10.8541 144.151 4.27409 130.821C1.53409 125.321 -0.73596 119.261 0.22404 113.011C1.55404 105.251 4.56402 97.6511 8.70402 90.9811C18.464 77.6911 35.8641 71.1511 51.2941 66.5511C59.1541 64.0711 66.5441 61.6312 74.7941 61.6112C83.4441 61.2312 93.514 61.8712 101.054 64.7912C102.334 64.9612 108.874 68.0612 107.004 64.6912L106.954 64.6012L106.944 64.5911Z" fill="#DEB1B1"/>
</svg>
