<svg width="316" height="292" viewBox="0 0 316 292" fill="none" xmlns="http://www.w3.org/2000/svg">
<path d="M96.1355 26.1672C100.645 30.4572 101.536 36.6572 101.496 42.6572C100.876 59.1672 105.746 75.5972 109.246 91.4172C111.546 100.357 114.876 110.367 123.056 115.357C129.836 119.127 139.266 121.027 146.956 122.967C151.436 124.007 156.026 125.277 159.906 127.837C166.876 132.277 171.506 140.997 168.676 148.977C167.376 153.027 164.185 156.637 160.525 158.997C156.245 161.727 151.186 162.327 146.436 162.937C138.346 163.727 129.966 167.997 123.446 173.037C113.916 180.917 114.176 193.437 113.216 204.797C112.696 211.987 111.395 218.767 111.505 226.157C111.645 232.797 110.406 239.337 109.816 245.847C109.446 250.537 109.056 255.457 106.346 259.467C98.2056 271.027 80.6355 272.477 71.6755 261.077C65.1755 251.577 67.4355 238.767 64.6355 228.017C59.1455 203.977 45.0056 178.077 22.6156 166.767C17.7256 164.217 11.5956 161.777 7.21556 158.497C1.61556 154.677 -0.894494 147.917 0.285506 141.387C1.63551 133.097 9.27552 126.817 17.0455 124.867C21.6655 123.647 26.0756 122.757 30.5956 120.537C38.2556 116.477 44.7856 110.377 48.1156 102.587C56.1656 83.3772 54.6655 61.7772 57.3055 41.4272C58.0755 35.2772 59.8955 28.7572 64.6355 24.5472C72.9555 16.8372 88.0556 17.7372 95.9856 26.0172L96.1156 26.1472L96.1355 26.1672ZM82.9856 132.187C78.5456 129.277 74.3555 133.937 71.2755 137.257C69.2855 139.497 66.9455 141.897 65.6255 144.367C63.6955 147.627 65.9755 150.797 68.1255 153.277C70.9255 156.487 74.3855 160.567 76.8855 161.857C79.7455 163.567 82.4155 161.207 84.1955 158.977C94.4355 146.387 97.5055 143.127 83.1455 132.287L82.9956 132.197L82.9856 132.187Z" fill="#FAF4EA"/>
<path d="M262.926 118.567C269.286 123.987 268.606 134.567 269.796 142.467C270.866 149.947 271.756 157.337 274.096 164.437C275.666 169.897 277.656 175.877 281.626 179.937C289.076 187.437 301.276 186.677 309.606 192.547C317.176 197.537 317.866 208.807 309.746 213.647C304.756 216.967 297.856 216.847 292.386 219.127C285.216 221.827 280.036 229.157 278.156 236.147C275.776 245.117 277.326 254.467 276.176 263.597C274.816 271.787 275.526 283.167 268.596 288.487C259.466 295.227 248.236 289.387 245.696 278.887C243.586 269.487 243.016 259.937 239.426 250.827C235.626 240.177 228.976 230.207 219.636 223.557C214.846 220.087 209.026 217.627 204.516 213.907C197.406 208.597 197.596 198.477 204.666 193.257C211.546 188.377 221.406 187.447 227.036 180.577C232.176 174.827 234.446 167.047 235.576 159.457C237.166 148.577 235.996 136.897 239.606 126.337C242.906 116.727 254.416 111.557 262.806 118.427L262.936 118.537L262.926 118.567ZM255.886 194.097C251.436 192.137 245.876 199.737 244.566 203.567C243.026 207.987 248.356 215.227 252.376 216.157C256.716 216.637 260.226 211.147 261.886 207.527C263.946 202.597 260.506 196.407 256.026 194.167L255.876 194.107L255.886 194.097Z" fill="#FAF4EA"/>
<path d="M202.035 1.39723C205.245 3.54723 206.055 7.63722 206.695 11.2472C207.315 15.0872 207.935 19.1872 208.995 23.3672C210.825 31.4272 213.405 37.8872 221.225 40.4672C224.515 41.7772 228.645 42.7772 231.415 44.8872C235.795 47.9472 236.335 53.4372 231.855 56.5072C229.125 58.4372 225.085 59.2372 221.935 60.8472C219.135 62.2172 216.735 64.1972 215.075 66.8272C211.125 73.2372 211.085 81.3372 210.745 88.4972C210.605 91.8972 210.265 95.5972 208.375 98.4672C204.965 104.107 196.225 103.277 193.315 97.5572C190.885 93.3472 190.775 88.4672 189.375 83.6672C188.375 80.0772 186.925 76.5972 185.065 73.3572C183.125 69.9472 180.605 66.8872 177.505 64.5272C172.615 60.4172 162.725 57.0972 163.995 49.5072C165.025 45.7572 168.635 44.1072 171.925 42.2072C176.035 40.1172 180.125 37.4772 182.215 33.1972C187.195 24.2172 183.705 11.8072 190.015 3.51723C192.845 0.167225 198.135 -1.23277 201.885 1.29723L202.025 1.38723L202.035 1.39723ZM198.965 45.8272C196.185 44.5772 192.365 49.5972 191.375 51.8772C190.615 54.4272 193.245 56.7772 195.665 57.4772C197.995 58.0972 200.275 56.4972 201.515 54.6672C203.675 51.8172 202.045 47.3472 199.115 45.8872L198.965 45.8172V45.8272Z" fill="#F8F3EA"/>
</svg>
