<svg width="237" height="309" viewBox="0 0 237 309" fill="none" xmlns="http://www.w3.org/2000/svg">
<path d="M165.018 0.252459C173.068 2.52246 176.648 12.1624 180.768 18.7924C186.858 29.1824 193.428 40.1325 203.588 46.5725C209.938 50.6025 217.098 53.4624 224.148 55.9724C227.288 57.1824 230.248 58.3624 232.708 60.3424C237.928 64.3024 238.128 71.8725 233.648 76.5825C229.478 81.1825 223.118 83.2925 217.858 86.3825C206.098 93.3525 194.578 104.632 187.848 116.272C183.088 123.532 183.018 137.502 173.198 139.682C164.668 140.732 161.008 130.922 157.738 124.672C150.838 112.342 143.498 98.0324 130.438 91.4324C124.328 88.5024 116.468 89.3224 110.668 85.3024C104.498 81.3824 102.648 72.4125 107.908 67.0825C110.498 64.2825 114.298 62.1925 117.738 60.2625C135.018 51.0825 145.228 38.3924 150.078 18.7124C151.938 11.0124 154.548 -1.84754 164.848 0.22246L165.008 0.262438L165.018 0.252459Z" fill="#FFDA7D"/>
<path d="M166.628 214.752C179.028 218.992 179.878 238.402 194.918 245.872C200.158 248.962 206.648 250.382 211.398 254.172C215.438 257.222 216.778 262.252 213.228 266.002C209.388 270.112 203.608 272.052 199.168 275.482C193.858 279.432 188.618 284.572 185.038 290.112C180.738 295.762 179.998 307.522 171.828 308.622C163.408 308.382 160.958 294.292 155.888 288.712C152.168 283.742 147.078 278.442 141.678 276.292C137.928 274.672 133.488 274.162 130.178 271.712C126.308 269.022 125.238 263.822 128.188 260.092C131.758 255.532 137.698 253.202 142.088 249.492C149.458 243.702 154.628 235.592 156.758 226.462C158.178 221.462 159.868 213.172 166.478 214.702L166.628 214.742V214.752Z" fill="#FFDB7E"/>
<path d="M40.298 126.873C44.788 127.993 47.788 132.132 50.178 135.902C53.758 141.672 57.0081 148.502 62.0781 153.532C65.2281 156.732 69.0481 159.192 73.0981 161.092C76.8481 162.942 81.318 164.102 84.568 166.602C89.108 169.912 89.2981 175.462 85.2381 179.282C80.0081 183.902 73.268 185.753 68.048 190.763C63.408 194.833 59.1381 199.633 56.4881 205.203C55.2181 207.913 54.2481 210.773 52.8481 213.433C48.8781 221.013 41.958 223.593 37.778 215.823C33.358 208.613 27.3281 195.183 18.8781 189.833C14.2681 186.763 8.00807 186.822 3.46807 183.842C-2.70193 179.722 0.248025 172.313 5.41803 168.683C8.61803 166.143 12.278 164.152 15.418 161.522C20.938 156.882 25.768 150.933 28.408 144.203C31.218 138.263 30.898 125.323 40.138 126.833L40.298 126.873Z" fill="#FFDB7E"/>
</svg>
