<svg width="199" height="294" viewBox="0 0 199 294" fill="none" xmlns="http://www.w3.org/2000/svg">
<path d="M0.717207 83.3707C6.70721 54.5707 22.3572 27.9407 49.0472 13.6107C57.9872 8.90069 67.8372 4.17066 77.5072 1.58066C84.2372 0.100664 91.3472 -0.0493128 98.1372 0.0106872C105.367 -0.0693128 112.787 0.480667 119.907 1.77067C137.147 6.09067 153.307 14.0507 166.497 26.6207C179.437 38.5907 190.397 53.2507 194.007 70.5707C195.357 76.2607 195.947 82.1907 196.997 88.0707C197.297 91.1807 198.737 94.8807 197.097 97.6307C195.797 99.2507 191.847 98.8107 186.257 98.8807C167.597 99.0507 139.507 98.5507 126.397 99.0807C122.957 99.5407 126.367 101.031 129.507 102.421C149.377 110.171 169.957 121.531 180.927 140.781C183.267 144.691 185.587 148.831 187.667 152.851C192.357 161.631 194.647 170.341 196.187 180.141C196.637 184.231 199.297 193.391 196.257 196.141C194.407 197.671 190.337 197.251 184.647 197.311C167.467 197.431 141.287 197.051 128.747 197.491C125.357 197.891 127.457 198.951 130.737 200.441C157.127 210.171 181.127 231.251 191.467 257.651C195.217 267.181 196.487 278.641 198.077 288.421C198.447 292.241 198.767 293.661 196.027 293.751C174.077 293.511 21.3372 294.191 1.37724 293.531C-0.0627583 292.521 0.00719042 288.301 0.13719 285.871C2.32719 259.911 15.4172 234.271 35.5272 217.781C42.4872 212.021 50.5572 207.321 58.8372 203.501C62.5372 201.791 67.4272 200.291 70.7272 198.331C71.5272 197.551 69.5572 197.471 67.0572 197.331C49.6772 197.271 18.9572 197.331 6.15721 197.301C4.07721 197.251 1.76724 197.321 0.877242 195.141C-0.0227583 193.181 -0.0127827 188.941 0.227217 186.061C0.627217 180.191 1.83722 174.461 3.66722 169.041C12.1472 139.161 33.6872 116.561 61.5272 104.721C64.7472 103.301 69.7372 101.651 72.2472 100.381C75.5872 98.8107 68.6972 98.9207 67.3972 98.8707C52.3872 98.7307 18.1972 99.1607 4.2772 98.6907C-1.7528 97.9607 0.207239 88.6307 0.687239 83.5507L0.717207 83.3607V83.3707Z" fill="#7AA9B4"/>
</svg>
