<svg width="259" height="259" viewBox="0 0 259 259" fill="none" xmlns="http://www.w3.org/2000/svg">
<path d="M18.8668 86.3269C26.1268 78.5369 47.6768 89.9269 51.9068 82.1569C52.1468 75.5669 39.8868 72.2869 35.8768 68.2069C26.7168 61.3669 36.4368 53.9069 41.8568 48.5969C46.2868 44.6269 52.0568 37.8869 56.1068 36.0469C64.0468 32.6869 68.0068 44.2069 73.7668 47.3169C75.9068 48.6469 77.9768 48.7169 78.8968 47.5169C82.9568 40.9969 68.0168 22.1269 74.2068 16.7069C75.9768 15.2769 78.6768 14.4569 81.0368 13.8669C87.5768 12.2669 97.2168 9.89688 103.637 8.38688C105.637 7.91688 108.007 7.53688 109.817 7.66688C117.237 7.75688 117.627 22.0569 119.787 27.7069C121.307 31.1269 124.367 52.0969 129.717 47.8069C131.767 46.2369 133.087 39.7769 133.767 36.0469C134.707 31.5369 135.857 27.2369 136.467 22.6269C137.377 16.7069 137.337 9.12688 139.637 4.03688C142.657 -2.63312 150.887 0.536882 156.167 2.46688C163.927 5.00688 171.687 8.40688 179.377 11.5769C197.437 18.3769 184.407 30.8869 177.977 41.3769C172.857 49.1369 158.117 74.9869 178.857 60.2369C188.547 53.8869 199.907 46.0369 209.697 39.8369C217.677 34.9969 221.917 44.0569 227.087 50.3369C235.317 60.6469 233.817 65.3269 225.547 74.8069C221.197 80.2669 217.577 86.6869 213.267 91.9169C210.907 94.9869 207.757 98.1269 206.357 101.687C204.177 108.527 212.557 106.357 217.047 104.417C224.087 101.387 230.997 97.9369 237.917 94.6269C248.357 88.7869 255.897 87.1369 257.177 101.897C258.787 120.027 261.047 121.687 243.757 130.587C236.027 135.027 229.177 138.487 221.647 142.567C208.387 151.357 217.067 153.237 227.337 152.777C256.317 153.267 261.257 147.797 253.097 180.307C251.797 185.077 247.517 186.717 243.067 187.357C235.637 188.327 227.937 189.367 220.307 189.457C213.257 189.557 205.737 189.457 199.197 192.127C185.277 199.397 226.237 215.197 214.997 228.607C209.487 234.707 200.537 237.537 193.817 241.907C185.767 246.827 181.627 240.427 177.537 233.527C173.887 228.157 170.427 221.627 164.337 218.967C156.517 216.757 155.677 227.717 153.347 233.147C151.397 239.007 149.117 246.307 145.187 250.467C141.817 254.067 137.157 256.077 132.587 257.767C127.447 259.787 122.117 258.637 120.637 252.647C119.037 246.917 119.027 240.747 118.067 234.837C117.317 230.007 116.137 225.437 115.077 220.777C109.897 197.697 94.4268 231.277 89.2268 238.027C84.3268 245.767 77.9968 252.677 67.8868 252.547C61.4768 252.417 55.4868 251.397 48.8868 250.787C44.7668 250.187 37.8568 250.107 37.2268 245.017C37.0068 241.667 40.5968 237.087 43.8968 232.757C46.1568 229.787 48.3268 226.727 50.6068 223.787C52.7668 220.827 56.2868 217.157 57.3168 214.107C58.8868 209.517 55.2568 209.077 50.9468 211.497C46.0968 214.217 41.3368 218.187 36.5668 221.287C25.8768 229.597 20.8368 223.867 14.5368 213.597C11.5268 208.567 7.50684 204.447 9.33684 199.217C11.2268 194.617 19.1468 191.347 23.9468 188.587C28.8268 185.617 36.4168 182.837 39.5168 178.507C42.3068 174.057 34.3668 173.277 30.7168 174.197C14.8568 177.737 8.27684 179.497 1.81684 162.137C-1.77316 153.737 -0.283159 148.137 8.44684 144.847C13.8068 142.647 19.8768 140.597 25.5968 138.647C37.5568 135.057 49.7068 129.787 31.1268 122.397C25.6168 119.837 19.0668 118.297 17.3768 111.917C16.6368 109.227 16.5268 106.127 16.5068 103.247C16.7668 96.4769 15.6868 90.8669 18.7768 86.4069L18.8668 86.2969V86.3269ZM138.137 96.0469C122.927 93.3069 108.917 95.8269 98.9668 108.357C94.0368 114.927 90.0368 122.537 88.8168 130.687C87.5368 142.027 90.0668 153.957 96.1068 163.567C99.9068 170.207 105.687 170.917 111.897 166.887C127.417 157.417 142.977 145.497 159.267 137.957C163.027 136.177 167.277 134.507 170.927 132.757C172.547 131.947 173.787 131.087 174.437 130.037C176.177 127.017 173.247 123.997 171.567 121.487C167.427 115.827 162.567 111.057 156.947 106.687C151.377 102.197 145.547 97.3969 138.327 96.0769L138.147 96.0369L138.137 96.0469Z" fill="#EEB67C"/>
<path d="M138.317 96.0869C145.027 97.3069 150.657 101.597 155.847 105.817C160.247 109.207 164.347 112.847 167.917 116.917C170.137 119.997 176.797 126.277 174.427 130.037C173.777 131.087 172.537 131.957 170.917 132.757C167.267 134.507 163.027 136.177 159.257 137.957C148.747 142.927 137.877 149.817 127.797 156.577C121.337 160.757 115.057 165.667 108.067 168.757C103.107 170.817 98.5867 167.987 96.0967 163.567C90.0267 153.917 87.4867 141.897 88.8367 130.497C90.3067 121.557 94.8767 113.017 100.817 106.187C110.847 95.3569 124.057 93.5469 138.127 96.0469L138.307 96.0869H138.317Z" fill="#F9F3EA"/>
</svg>
